<?xml version="1.0" encoding="utf-8"?>
<!-- Generator: Adobe Illustrator 27.5.0, SVG Export Plug-In . SVG Version: 6.00 Build 0)  -->
<svg version="1.1" xmlns="http://www.w3.org/2000/svg" xmlns:xlink="http://www.w3.org/1999/xlink" x="0px" y="0px"
	 viewBox="0 0 1122 1122" style="enable-background:new 0 0 1122 1122;" xml:space="preserve">
<g id="Bg">
	<rect style="fill:#FFFFFF;" width="1122" height="1122"/>
</g>
<g id="Object">
	<g>
		<path style="fill:#AAD4C8;" d="M715.642,805.661c6.028,0,10.93-4.908,10.93-10.951V551.411l-165.56-165.569L395.434,551.411
			v243.299c0,6.043,4.903,10.951,10.936,10.951h70.059V644.295c0-1.997,0.81-3.949,2.221-5.35c1.41-1.416,3.359-2.218,5.356-2.218
			h154.001c1.997,0,3.946,0.802,5.35,2.218c1.416,1.401,2.221,3.353,2.221,5.35v161.366H715.642z"/>
		<path style="fill:#616E7D;" d="M359.031,587.82v206.89c0,26.151,21.207,47.348,47.339,47.348h309.272
			c26.133,0,47.327-21.197,47.327-47.348V587.805l-36.397-36.394v243.299c0,6.043-4.903,10.951-10.93,10.951h-70.065v23.775
			c0,1.985-0.805,3.934-2.221,5.35c-1.404,1.416-3.353,2.221-5.35,2.221H484.006c-1.997,0-3.946-0.805-5.356-2.221
			c-1.411-1.416-2.221-3.365-2.221-5.35v-23.775H406.37c-6.034,0-10.936-4.908-10.936-10.951V551.411L359.031,587.82z"/>
		<path style="fill:#616E7D;" d="M282.593,608.906l27.682,27.663l48.755-48.749l36.403-36.409l165.578-165.569l165.56,165.569
			l36.397,36.394l48.767,48.764l27.67-27.663c19.717-19.715,19.717-51.691,0-71.405l-215.03-215.024l0.073-0.079l-27.67-27.679
			c-9.877-9.883-22.816-14.791-35.768-14.776c-12.964-0.015-25.915,4.893-35.792,14.776l-27.664,27.679l0.079,0.079L282.593,537.5
			C262.876,557.214,262.876,589.19,282.593,608.906z"/>
		<path style="fill:#616E7D;" d="M484.006,636.727c-1.997,0-3.946,0.802-5.356,2.218c-1.411,1.401-2.221,3.353-2.221,5.35v161.366
			v23.775c0,1.985,0.81,3.934,2.221,5.35c1.41,1.416,3.359,2.221,5.356,2.221h154.001c1.997,0,3.946-0.805,5.35-2.221
			c1.416-1.416,2.221-3.365,2.221-5.35v-23.775V644.295c0-1.997-0.805-3.949-2.221-5.35c-1.404-1.416-3.353-2.218-5.35-2.218
			H484.006z"/>
	</g>
</g>
</svg>
