<?xml version="1.0" encoding="utf-8"?>
<!-- Generator: Adobe Illustrator 27.5.0, SVG Export Plug-In . SVG Version: 6.00 Build 0)  -->
<svg version="1.1" xmlns="http://www.w3.org/2000/svg" xmlns:xlink="http://www.w3.org/1999/xlink" x="0px" y="0px"
	 viewBox="0 0 1122 1122" style="enable-background:new 0 0 1122 1122;" xml:space="preserve">
<g id="Bg">
	<g>
		<g>
			<rect style="fill:#FFFFFF;" width="1122" height="1122"/>
		</g>
	</g>
</g>
<g id="Object">
	<g>
		<path style="fill:none;" d="M500.909,359.869c-23.064,14.652-36.827,40.325-36.827,67.647v74.428h193.151v-75.009
			C649.408,360.087,573.377,313.843,500.909,359.869z"/>
		<path style="fill:#AAD4C8;" d="M583.017,723.985V682.55c12.032-7.42,20.129-20.604,20.129-35.795
			c0-31.991-35.671-55.646-69.417-33.41c-2.475,1.625-4.636,3.803-6.257,6.288c-16.547,25.44-7.359,51.276,11.529,62.917v41.435
			H583.017z"/>
		<path style="fill:#616E7D;" d="M374.203,856.383h373.594c24.541,0,45.07-16.849,50.849-39.583H323.354
			C329.146,839.534,349.705,856.383,374.203,856.383z"/>
		<path style="fill:#82BFAB;" d="M321.659,803.809c0,4.487,0.635,8.824,1.694,12.991h475.293c1.059-4.167,1.694-8.503,1.694-12.991
			v-8.358H321.659V803.809z"/>
		<path style="fill:#616E7D;" d="M733.623,438.252c0-124.252-131.971-218.294-263.04-149.258
			c-51.019,26.871-82.187,80.641-82.187,138.308v74.643h-33.904c-18.138,0-32.832,14.691-32.832,32.829v260.677h478.681V534.768
			c0-18.132-14.694-32.823-32.832-32.823h-33.886h-1.096v-63.692H733.623z M583.017,682.55v41.435h-44.016V682.55
			c-18.888-11.642-28.076-37.478-11.529-62.917c1.622-2.485,3.782-4.663,6.257-6.288c33.746-22.235,69.417,1.419,69.417,33.41
			C603.147,661.946,595.049,675.13,583.017,682.55z M657.234,501.944H464.082v-74.428c0-27.322,13.762-52.994,36.827-67.647
			c72.468-46.026,148.499,0.217,156.325,67.066V501.944z"/>
	</g>
</g>
</svg>
