<?xml version="1.0" encoding="utf-8"?>
<!-- Generator: Adobe Illustrator 27.5.0, SVG Export Plug-In . SVG Version: 6.00 Build 0)  -->
<svg version="1.1" id="Layer_1" xmlns="http://www.w3.org/2000/svg" xmlns:xlink="http://www.w3.org/1999/xlink" x="0px" y="0px"
	 viewBox="0 0 2122 2122" style="enable-background:new 0 0 2122 2122;" xml:space="preserve">
<g>
	<rect style="fill:#FFFFFF;" width="2121.32" height="2121.32"/>
	<g>
		<g>
			<radialGradient id="SVGID_1_" cx="1070.1682" cy="1140.8494" r="730.3349" gradientUnits="userSpaceOnUse">
				<stop  offset="0.4599" style="stop-color:#FF3D32"/>
				<stop  offset="0.4876" style="stop-color:#FF5248"/>
				<stop  offset="0.5554" style="stop-color:#FF7F78"/>
				<stop  offset="0.6251" style="stop-color:#FFA7A2"/>
				<stop  offset="0.6957" style="stop-color:#FFC7C3"/>
				<stop  offset="0.7675" style="stop-color:#FFDFDE"/>
				<stop  offset="0.841" style="stop-color:#FFF1F0"/>
				<stop  offset="0.9171" style="stop-color:#FFFCFB"/>
				<stop  offset="1" style="stop-color:#FFFFFF"/>
			</radialGradient>
			<circle style="fill:url(#SVGID_1_);" cx="1070.168" cy="1140.85" r="730.335"/>
		</g>
		<path style="fill:#FF3D32;" d="M1083.011,504.19L1083.011,504.19c14.774,18.329,41.504,21.454,60.107,7.026v-0.001
			c21.772-16.886,53.575-9.349,65.452,15.513l0,0c10.148,21.243,35.438,30.447,56.867,20.698l0,0
			c25.079-11.41,54.286,3.259,60.11,30.188l0,0c4.976,23.01,27.462,37.799,50.561,33.255l0,0
			c27.034-5.319,52.072,15.69,51.528,43.237l0,0c-0.465,23.537,18.003,43.113,41.528,44.017l0,0
			c27.532,1.059,47.05,27.276,40.168,53.955l0,0c-5.88,22.796,7.576,46.103,30.258,52.409h0.001
			c26.546,7.38,39.491,37.391,26.642,61.764l0,0c-10.979,20.826-3.26,46.607,17.357,57.974l0,0
			c24.129,13.303,29.804,45.49,11.68,66.243l0,0c-15.486,17.732-13.92,44.599,3.519,60.413l0,0
			c20.41,18.509,18.51,51.138-3.911,67.152l0,0c-19.157,13.683-23.83,40.187-10.509,59.597l0,0
			c15.592,22.717,6.218,54.028-19.292,64.44l0,0c-21.797,8.896-32.456,33.607-23.969,55.567l0,0
			c9.933,25.7-6.409,54.005-33.632,58.254l0,0c-23.261,3.63-39.331,25.217-36.138,48.541l0,0
			c3.738,27.298-18.691,51.072-46.16,48.927h-0.001c-23.471-1.832-44.087,15.467-46.358,38.899v0.001
			c-2.658,27.424-29.965,45.384-56.199,36.963l0,0c-22.415-7.196-46.465,4.883-54.079,27.16l0,0
			c-8.911,26.072-39.624,37.25-63.209,23.006l0,0c-20.153-12.171-46.339-5.965-58.885,13.956l0,0
			c-14.684,23.314-47.146,27.109-66.811,7.809l0,0c-16.802-16.49-43.715-16.49-60.516,0l0,0c-19.664,19.3-52.127,15.505-66.81-7.809
			l0,0c-12.547-19.921-38.733-26.127-58.885-13.956l0,0c-23.585,14.245-54.298,3.067-63.209-23.006l0,0
			c-7.614-22.277-31.664-34.355-54.08-27.16l0,0c-26.234,8.421-53.541-9.539-56.199-36.963v-0.001
			c-2.272-23.432-22.887-40.731-46.358-38.899l0,0c-27.47,2.145-49.898-21.629-46.16-48.927l0,0
			c3.194-23.325-12.877-44.912-36.138-48.541h-0.001c-27.223-4.249-43.565-32.553-33.633-58.254l0,0
			c8.487-21.959-2.172-46.671-23.969-55.567l0,0c-25.51-10.411-34.884-41.722-19.292-64.44l0,0
			c13.322-19.41,8.649-45.913-10.509-59.597l0,0c-22.421-16.014-24.322-48.642-3.911-67.152l0,0
			c17.44-15.814,19.004-42.681,3.518-60.413l0,0c-18.123-20.754-12.448-52.94,11.681-66.243l0,0
			c20.616-11.367,28.335-37.148,17.356-57.974l0,0c-12.849-24.373,0.096-54.384,26.642-61.764l0,0
			c22.682-6.306,36.138-29.612,30.258-52.409l0,0c-6.882-26.679,12.635-52.896,40.168-53.955l0,0
			c23.525-0.905,41.993-20.48,41.529-44.017l0,0c-0.544-27.548,24.494-48.556,51.528-43.237l0,0
			c23.1,4.545,45.584-10.244,50.56-33.255l0,0c5.824-26.93,35.031-41.599,60.111-30.188l0,0
			c21.428,9.749,46.718,0.545,56.866-20.698l0,0c11.878-24.861,43.681-32.399,65.452-15.513v0.001
			c18.603,14.428,45.333,11.303,60.107-7.026l0,0C1033.037,482.738,1065.72,482.738,1083.011,504.19z"/>
		<g>
			<g>
				<path style="fill:#FFFFFF;" d="M1445.731,1286.969l-10.48,16.695l-8.351-5.237l10.48-16.695L1445.731,1286.969z"/>
				<path style="fill:#FFFFFF;" d="M1332.779,1393.318l5.632-4.632l-7.984-9.696l10.33-8.495l30.023,36.49l-16.68,13.725
					c-3.302,2.719-6.618,4.531-9.948,5.438c-3.337,0.906-6.503,0.885-9.495-0.057c-2.992-0.949-5.618-2.791-7.876-5.539
					c-2.179-2.64-3.452-5.452-3.834-8.43c-0.382-2.978,0.115-5.963,1.496-8.963l-17.306-4.993l11.048-9.091L1332.779,1393.318z
					 M1342.08,1414.603c1.848,0.057,3.834-0.791,5.955-2.539l5.734-4.719l-8.798-10.682l-5.733,4.719
					c-2.122,1.74-3.337,3.517-3.661,5.322c-0.316,1.805,0.223,3.568,1.626,5.266
					C1338.605,1413.674,1340.231,1414.552,1342.08,1414.603z"/>
				<path style="fill:#FFFFFF;" d="M1239.923,1449.87l-4.805-9.142l33.57-17.659l22.003,41.814l-32.8,17.256l-4.805-9.135
					l21.09-11.099l-3.712-7.05l-18.58,9.776l-4.654-8.841l18.58-9.776l-4.021-7.646L1239.923,1449.87z"/>
				<path style="fill:#FFFFFF;" d="M1132.502,1522.851l3.266-49.568l13.868-3.51l15.824,25.658l2.108-30.196l13.875-3.51
					l26.441,42.043l-13.343,3.38l-16.63-26.916l-2.28,31.7l-11.912,3.013l-16.702-27.175l-2.143,31.952L1132.502,1522.851z"/>
				<path style="fill:#FFFFFF;" d="M1047.121,1490.022l19.982-0.202l3.625-9.214l13.631-0.136l-20.393,47.453l-13.163,0.136
					l-21.392-47.05l13.911-0.136L1047.121,1490.022z M1051.135,1499.833l6.229,15.062l5.92-15.184L1051.135,1499.833z"/>
				<path style="fill:#FFFFFF;" d="M963.523,1484.145l7.136,1.482l2.546-12.3l13.091,2.711l-9.581,46.273l-21.154-4.38
					c-4.187-0.863-7.675-2.316-10.481-4.344c-2.791-2.029-4.762-4.496-5.898-7.423c-1.143-2.928-1.352-6.129-0.633-9.61
					c0.69-3.352,2.079-6.107,4.157-8.272c2.087-2.165,4.719-3.654,7.92-4.459l-6.969-16.609l14.012,2.898L963.523,1484.145z
					 M952.776,1504.739c1.122,1.474,3.021,2.489,5.711,3.043l7.279,1.511l2.798-13.552l-7.272-1.511
					c-2.69-0.554-4.834-0.388-6.445,0.496c-1.604,0.885-2.633,2.403-3.079,4.567
					C951.324,1501.451,951.654,1503.264,952.776,1504.739z"/>
				<path style="fill:#FFFFFF;" d="M880.867,1496.294l-20.407-9.106c-4.719-2.107-8.516-4.863-11.393-8.258
					c-2.863-3.402-4.582-7.171-5.151-11.314c-0.561-4.143,0.13-8.402,2.072-12.754c1.942-4.359,4.646-7.711,8.107-10.055
					c3.46-2.353,7.416-3.597,11.861-3.726c4.445-0.136,9.035,0.849,13.761,2.957l20.407,9.106L880.867,1496.294z M875.861,1453.999
					c-3.698-1.647-7.128-1.928-10.308-0.835c-3.179,1.101-5.589,3.497-7.236,7.193c-1.654,3.704-1.827,7.1-0.518,10.2
					c1.302,3.093,3.805,5.46,7.503,7.114l7.704,3.438l10.56-23.673L875.861,1453.999z"/>
				<path style="fill:#FFFFFF;" d="M749.335,1394.21l-14.458-13.4l6.697-7.229l14.458,13.4L749.335,1394.21z"/>
			</g>
			<g>
				<path style="fill:#FFFFFF;" d="M654.746,827.771l10.049-16.954l8.48,5.021l-10.048,16.954L654.746,827.771z"/>
				<path style="fill:#FFFFFF;" d="M726.087,706.927l9.826-9.063l32.03,34.742l-9.826,9.063L726.087,706.927z"/>
				<path style="fill:#FFFFFF;" d="M819.122,637.565l25.155,40.008l-9.323,5.855l-31.06-10.214l13.401,21.313l-11.085,6.969
					l-25.147-40l9.315-5.862l31.06,10.221l-13.401-21.321L819.122,637.565z"/>
				<path style="fill:#FFFFFF;" d="M893.441,654.116c-3.705,0.36-6.884,0.194-9.545-0.51l0.712-10.76
					c2.467,0.575,5.157,0.784,8.071,0.618c2.913-0.158,5.639-0.712,8.171-1.647c4.813-1.769,6.777-3.863,5.891-6.273
					c-0.467-1.259-1.503-1.949-3.1-2.057c-1.597-0.1-4.042,0.065-7.33,0.511c-3.597,0.51-6.675,0.77-9.214,0.77
					c-2.539,0-4.948-0.611-7.221-1.835c-2.273-1.223-3.978-3.374-5.115-6.459c-0.992-2.705-1.158-5.417-0.474-8.135
					c0.669-2.719,2.244-5.251,4.711-7.603c2.468-2.345,5.834-4.309,10.099-5.877c2.913-1.079,5.906-1.805,8.977-2.194
					c3.072-0.389,5.912-0.345,8.538,0.122l-0.432,10.739c-5.064-0.727-9.581-0.359-13.552,1.108
					c-2.489,0.921-4.172,1.956-5.035,3.114c-0.87,1.165-1.086,2.33-0.647,3.518c0.432,1.179,1.432,1.813,3.007,1.906
					c1.568,0.093,3.964-0.093,7.193-0.561c3.647-0.533,6.733-0.791,9.251-0.784c2.518,0,4.919,0.611,7.207,1.806
					c2.287,1.194,3.999,3.33,5.135,6.409c0.979,2.661,1.13,5.344,0.446,8.042c-0.691,2.697-2.273,5.236-4.747,7.61
					c-2.482,2.373-5.834,4.344-10.056,5.905C900.792,652.922,897.145,653.756,893.441,654.116z"/>
				<path style="fill:#FFFFFF;" d="M971.306,594.543l-14.314,2.359l-1.727-10.459l41.763-6.877l1.727,10.452l-14.256,2.352
					l5.956,36.167l-13.185,2.172L971.306,594.543z"/>
				<path style="fill:#FFFFFF;" d="M1078.778,615.324l-19.968-0.698l-4.035,9.041l-13.623-0.474l22.5-46.489l13.163,0.453
					l19.249,47.963l-13.898-0.489L1078.778,615.324z M1075.217,605.34l-5.546-15.329l-6.603,14.904L1075.217,605.34z"/>
				<path style="fill:#FFFFFF;" d="M1194.09,597.427l-11.869,45.741l-10.646-2.762l-13.868-29.614l-6.323,24.378l-12.681-3.295
					l11.869-45.734l10.646,2.762l13.868,29.606l6.33-24.37L1194.09,597.427z"/>
				<path style="fill:#FFFFFF;" d="M1253.079,632.4l-13.012-6.431l4.704-9.502l37.936,18.766l-4.697,9.495l-12.947-6.401
					l-16.25,32.85l-11.983-5.92L1253.079,632.4z"/>
				<path style="fill:#FFFFFF;" d="M1365.507,718.199l14.12,13.753l-6.884,7.056l-14.12-13.753L1365.507,718.199z"/>
			</g>
		</g>
		<g>
			<g>
				<path style="fill:#FFFFFF;" d="M848.923,1219.228c7.532,6.869,12.279,15.904,14.242,27.1
					c2.907,16.613-1.704,30.678-13.825,42.194c-12.135,11.524-31.197,19.562-57.2,24.111l-106.709,18.681l-33.188-189.591
					l101.3-17.731c25.276-4.427,45.158-3.251,59.645,3.517c14.493,6.769,23.047,17.645,25.672,32.631
					c1.547,8.848,0.726,17.181-2.46,24.993c-3.194,7.819-8.739,14.652-16.652,20.504
					C831.674,1207.83,841.399,1212.363,848.923,1219.228z M722.901,1175.416l4.934,28.168l29.794-5.215
					c13.897-2.435,20.032-8.348,18.385-17.738c-1.64-9.388-9.423-12.865-23.32-10.431L722.901,1175.416z M797.42,1250.302
					c-1.74-9.933-9.653-13.666-23.737-11.199l-38.454,6.733l5.215,29.793l38.461-6.732
					C792.99,1266.429,799.162,1260.229,797.42,1250.302z"/>
				<path style="fill:#FFFFFF;" d="M1018.198,1239.006l-72.039,12.609l-6.949,35.274l-65.004,11.379l49.69-204.099l62.832-10.999
					l116.067,175.083l-66.083,11.566L1018.198,1239.006z M992.533,1196.045l-26.758-44.443l-10.078,50.887L992.533,1196.045z"/>
				<path style="fill:#FFFFFF;" d="M1152.815,1240.983c-17.551-5.585-32.196-15.113-43.95-28.596
					c-11.76-13.476-19.313-29.787-22.665-48.931c-3.345-19.137-1.784-37.041,4.697-53.718c6.474-16.669,17.018-30.613,31.621-41.824
					c14.594-11.207,31.922-18.565,51.962-22.072c18.414-3.225,35.412-2.852,50.999,1.115c15.58,3.974,29.139,11.279,40.684,21.91
					l-34.052,43.086c-14.328-12.743-29.441-17.734-45.331-14.954c-13.365,2.341-23.349,8.513-29.974,18.507
					c-6.625,10.003-8.674,22.223-6.143,36.663c2.525,14.447,8.603,25.251,18.234,32.401c9.625,7.157,21.119,9.564,34.484,7.222
					c15.882-2.781,28.398-12.599,37.547-29.463l46.662,28.959c-7.243,13.926-17.515,25.396-30.822,34.427
					c-13.307,9.03-29.175,15.152-47.589,18.378C1189.141,1247.601,1170.352,1246.565,1152.815,1240.983z"/>
				<path style="fill:#FFFFFF;" d="M1378.074,1145.302l-11.552,18.497l8.2,46.855l-62.839,10.999l-33.188-189.592l62.838-10.998
					l12.041,68.794l50.251-79.699l69.6-12.185l-61.227,96.696l98.214,92.23l-73.938,12.944L1378.074,1145.302z"/>
			</g>
			<g>
				<path style="fill:#FFFFFF;" d="M692.294,1094.525c-17.544-5.582-32.189-15.112-43.942-28.592
					c-11.761-13.48-19.314-29.791-22.666-48.931c-3.352-19.137-1.791-37.044,4.697-53.718c6.474-16.673,17.012-30.617,31.614-41.824
					c14.594-11.21,31.923-18.569,51.963-22.075c18.422-3.226,35.419-2.853,50.999,1.122c15.587,3.971,29.14,11.272,40.684,21.903
					L771.59,965.5c-14.321-12.745-29.441-17.738-45.323-14.957c-13.365,2.341-23.349,8.512-29.981,18.511
					c-6.618,9.999-8.668,22.22-6.143,36.663c2.532,14.447,8.61,25.247,18.234,32.401c9.631,7.153,21.119,9.56,34.483,7.222
					c15.889-2.783,28.406-12.599,37.548-29.463l46.661,28.955c-7.236,13.926-17.515,25.396-30.815,34.43
					c-13.307,9.027-29.175,15.152-47.589,18.378C728.626,1101.146,709.831,1100.107,692.294,1094.525z"/>
				<path style="fill:#FFFFFF;" d="M972.068,1020.013l-72.046,12.609l-6.948,35.271l-64.997,11.379l49.69-204.096l62.832-10.998
					l116.067,175.079l-66.089,11.566L972.068,1020.013z M946.396,977.049l-26.758-44.442l-10.07,50.887L946.396,977.049z"/>
				<path style="fill:#FFFFFF;" d="M1091.574,1032.169c-15.516-0.91-28.578-3.51-39.188-7.794l12.43-50.19
					c9.941,3.661,20.787,6.086,32.534,7.287c11.746,1.198,22.766,0.899,33.066-0.903c8.84-1.55,15.012-3.51,18.5-5.891
					c3.496-2.381,4.942-5.283,4.338-8.718c-0.698-3.97-3.697-6.513-9.013-7.632c-5.316-1.115-13.861-1.853-25.65-2.212
					c-15.163-0.507-27.924-1.669-38.289-3.485c-10.365-1.813-19.867-6.104-28.492-12.872c-8.631-6.768-14.141-17.018-16.543-30.743
					c-2.086-11.916-0.647-23.335,4.33-34.257c4.964-10.919,13.602-20.338,25.896-28.261c12.293-7.916,27.916-13.538,46.87-16.857
					c13.005-2.273,26.025-3.111,39.065-2.51c13.034,0.604,24.808,2.772,35.332,6.513l-11.12,49.682
					c-20.249-6.132-38.67-7.747-55.279-4.838c-16.437,2.878-23.953,8.286-22.557,16.228c0.661,3.79,3.597,6.211,8.804,7.25
					c5.208,1.043,13.595,1.673,25.169,1.874c14.918,0.183,27.65,1.165,38.202,2.949c10.545,1.78,20.169,6.003,28.873,12.67
					c8.704,6.668,14.257,16.861,16.66,30.582c2.086,11.915,0.633,23.291-4.359,34.116c-4.992,10.833-13.624,20.252-25.896,28.261
					c-12.271,8.01-27.895,13.674-46.855,16.994C1122.691,1032.165,1107.083,1033.082,1091.574,1032.169z"/>
				<path style="fill:#FFFFFF;" d="M1398.588,784.005l33.189,189.588l-63.917,11.188l-12.236-69.877l-59.041,10.336l12.235,69.877
					l-63.925,11.189l-33.182-189.588l63.918-11.188l11.753,67.165l59.041-10.336l-11.753-67.166L1398.588,784.005z"/>
			</g>
		</g>
		
			<rect x="751.386" y="782.189" transform="matrix(0.9855 -0.1695 0.1695 0.9855 -119.6521 182.3466)" style="fill:#FFFFFF;" width="513.875" height="19.764"/>
		
			<rect x="855.149" y="1298.041" transform="matrix(0.9855 -0.1695 0.1695 0.9855 -205.5766 207.3945)" style="fill:#FFFFFF;" width="513.876" height="19.765"/>
	</g>
</g>
</svg>
