<?xml version="1.0" encoding="utf-8"?>
<!-- Generator: Adobe Illustrator 27.5.0, SVG Export Plug-In . SVG Version: 6.00 Build 0)  -->
<svg version="1.1" id="Layer_1" xmlns:xodm="http://www.corel.com/coreldraw/odm/2003"
	 xmlns="http://www.w3.org/2000/svg" xmlns:xlink="http://www.w3.org/1999/xlink" x="0px" y="0px" viewBox="0 0 4000 4000"
	 style="enable-background:new 0 0 4000 4000;" xml:space="preserve">
<g id="Layer_x5F_1">
	<g id="_2353546338736">
		<rect style="fill-rule:evenodd;clip-rule:evenodd;fill:#FFFFFF;" width="4000" height="4000"/>
		<g>
			<path style="fill-rule:evenodd;clip-rule:evenodd;fill:#FF9065;" d="M1519.13,1077.25h961.75
				c244.044,0,441.88,197.836,441.88,441.88v961.75c0,244.044-197.836,441.88-441.88,441.88h-961.75
				c-244.044,0-441.88-197.836-441.88-441.88v-961.75C1077.25,1275.086,1275.086,1077.25,1519.13,1077.25z"/>
			<path style="fill:#FFFFFF;" d="M1745.48,2178.66l-99.57,46.1c-67.59,31.3-144.78-18.17-144.78-92.51v-264.5
				c0-74.02,76.96-123.92,144.78-92.51l122.75,56.84v335.84L1745.48,2178.66z M2422.5,2134.26l-437.2,232.65
				c-91.5,48.69-193.67-25.77-193.67-134.26v-465.3c0-108.49,102.17-182.95,193.67-134.26l437.2,232.65
				C2524.32,1919.92,2524.32,2080.08,2422.5,2134.26L2422.5,2134.26z M1947.96,2296.9l437.2-232.64
				c45.56-24.25,45.56-104.27,0-128.52l-437.2-232.64c-37.52-19.97-76.68,15.97-76.68,64.25v465.3
				C1871.28,2280.93,1910.45,2316.87,1947.96,2296.9z M1612.62,2152.58l76.39-35.37v-234.42l-76.39-35.37
				c-15.77-7.3-31.84,3.71-31.84,20.33v264.5C1580.78,2148.87,1596.85,2159.879,1612.62,2152.58L1612.62,2152.58z"/>
		</g>
	</g>
</g>
</svg>
