<?xml version="1.0" encoding="utf-8"?>
<!-- Generator: Adobe Illustrator 27.5.0, SVG Export Plug-In . SVG Version: 6.00 Build 0)  -->
<svg version="1.1" id="Layer_1" xmlns="http://www.w3.org/2000/svg" xmlns:xlink="http://www.w3.org/1999/xlink" x="0px" y="0px"
	 viewBox="0 0 1024 1024" style="enable-background:new 0 0 1024 1024;" xml:space="preserve">
<g>
	<path style="fill:#3B3E57;" d="M501.201,129.22c104.818-1.442,200.682,33.452,277.418,105.788
		c67.141,63.29,112.621,169.896,114.864,261.06c1.777,72.233-12.419,128.001-46.053,190.472
		c-64.21,119.264-189.018,203.947-326.216,206.939c-162.403,0.594-293.691-77.85-360.119-228.765
		c-75.181-170.805-15.79-365.564,135.898-470.535C356.635,152.905,429.013,131.31,501.201,129.22z M189.462,695.573
		c48.189,94.91,148.061,162.028,251.878,179.504c71.427,12.023,126.397,7.792,194.331-17.295
		c85.809-31.687,145.802-83.566,192.01-161.369c54.499-91.761,70.669-189.141,38.562-292.553
		c-10.301-33.18-30.304-79.425-50.36-107.483c-5.851-9.474-13.11-19.133-20.73-27.259c-10.907-14.121-25.273-26.285-39.016-37.547
		c-8.958-7.68-18.898-14.776-28.666-21.41c-83.59-66.498-218.267-82.689-318.256-54.264
		c-157.9,44.888-269.425,190.081-269.464,354.866C139.734,583.898,156.389,633.165,189.462,695.573z"/>
	<path style="fill:#FA6564;" d="M189.462,695.573c-33.073-62.408-49.729-111.676-49.711-184.809
		c0.04-164.785,111.564-309.978,269.464-354.866c99.989-28.425,234.666-12.234,318.256,54.264
		c9.768,6.634,19.708,13.729,28.666,21.41c13.742,11.262,28.108,23.426,39.016,37.547c7.619,8.126,14.879,17.786,20.73,27.259
		c20.057,28.058,40.06,74.303,50.36,107.483c32.107,103.412,15.938,200.792-38.562,292.553
		c-46.208,77.803-106.201,129.683-192.01,161.369c-67.935,25.087-122.904,29.318-194.331,17.295
		C337.523,857.602,237.651,790.483,189.462,695.573z M256.273,708.805c3.834-2.183,35.476-37.408,42.062-43.838l366.917-363.519
		c9.567-9.407,41.037-35.098,45.104-45.927l-0.774-0.489c-87.083-56.141-169.441-78.637-272.647-57.509
		C319.029,221.659,222.37,323.519,196.545,439.915c-19.524,88.005-4.821,157.37,36.541,235.306
		C239.616,687.524,244.878,700.299,256.273,708.805z M312.99,766.115c2.17,4.33,4.972,6.984,8.618,10.075
		c8.688,4.551,16.902,10.325,25.429,15.213c177.173,101.564,401.609,9.15,470.507-179.565
		c27.067-74.139,20.321-164.142-12.71-235.283c-7.686-13.208-13.967-27.045-22.097-40.11l-5.078-7.954
		c-17.813-20.715-20.474-4.91-37.94,12.603L372.288,706.666C358.918,719.865,316.845,754.632,312.99,766.115z M189.462,695.573
		c-0.089-2.408-12.395-30.23-14.485-36.037c-43.162-119.902-30.905-244.72,42.624-351.327
		c111.477-161.625,342.912-206.628,504.141-95.357c6.275,0.414,14.485,7.11,20.227,10.624l0.427-0.203l-1.339-0.266l0.432-0.48
		c-4.249-2.979-11.762-7.661-14.018-12.366c-83.59-66.498-218.267-82.689-318.256-54.264
		c-157.9,44.888-269.425,190.081-269.464,354.866C139.734,583.898,156.389,633.165,189.462,695.573z M804.834,376.555
		c33.031,71.141,39.777,161.144,12.71,235.283c-68.897,188.716-293.334,281.13-470.507,179.565
		c-8.526-4.888-16.741-10.662-25.429-15.213c4.233,11.2,54.907,36.675,67.606,42.467c88.818,40.509,190.553,28.354,276.392-13.737
		c160.32-78.611,221.627-272.68,142.913-432.805C803.507,370.23,806.997,373.526,804.834,376.555z M710.356,255.522
		c-4.066,10.829-35.536,36.52-45.104,45.927L298.336,664.967c-6.587,6.43-38.228,41.655-42.062,43.838
		c10.325,10.826,44.085-30.09,51.877-37.672l353.725-349.362c19.446-19.434,39.8-38.27,56.741-59.998
		C716.573,259.381,713.727,255.531,710.356,255.522z"/>
	<path style="fill:#FEB4B4;" d="M777.659,328.491c3.554-2.49,6.04,2.957,7.973,5.522c-1.2,0.758-2.01,1.291-2.894,2.432
		L777.659,328.491z"/>
	<path style="fill:#FEB4B4;" d="M792.807,271.851l0.389-0.85c-0.812-1.192-1.75-2.066-2.807-3.029l0.747-1.067
		c1.764-0.208,2.366,1.558,3.283,2.792l0.734-0.58c7.619,8.126,14.879,17.786,20.73,27.259
		C813.481,298.808,796.201,276.09,792.807,271.851z"/>
	
		<linearGradient id="SVGID_1_" gradientUnits="userSpaceOnUse" x1="614.3249" y1="629.4681" x2="630.7441" y2="614.522" gradientTransform="matrix(1.6 0 0 -1.6 -204.2006 1347.4008)">
		<stop  offset="0" style="stop-color:#FFBAB9"/>
		<stop  offset="1" style="stop-color:#FFF2F1"/>
	</linearGradient>
	<path style="fill:url(#SVGID_1_);" d="M782.737,336.445c0.885-1.141,1.694-1.674,2.894-2.432
		c8.781,12.081,16.644,24.512,22.888,38.102c-5.013-1.885-1.522,1.411-3.685,4.44C797.148,363.347,790.867,349.51,782.737,336.445z"
		/>
	<path style="fill:#FFFFFF;" d="M727.472,210.162c9.768,6.634,19.708,13.729,28.666,21.41
		c13.742,11.262,28.108,23.426,39.016,37.547l-0.734,0.58c-0.917-1.234-1.519-3-3.283-2.792l-0.747,1.067
		c1.057,0.963,1.995,1.837,2.807,3.029l-0.389,0.85c-11.729-12.558-24.914-23.739-38.087-34.744
		c-10.625-8.581-21.938-16.232-32.977-24.254c6.275,0.414,14.485,7.11,20.227,10.624l0.427-0.203l-1.339-0.266l0.432-0.48
		C737.24,219.549,729.727,214.867,727.472,210.162z"/>
	<path style="fill:#3B3E57;" d="M312.99,766.115c3.854-11.483,45.928-46.25,59.298-59.449L739.72,341.094
		c17.466-17.513,20.127-33.318,37.94-12.603l5.078,7.954c8.13,13.065,14.411,26.902,22.097,40.11
		c33.031,71.141,39.777,161.144,12.71,235.283c-68.897,188.716-293.334,281.13-470.507,179.565
		c-8.526-4.888-16.741-10.662-25.429-15.213C317.962,773.1,315.16,770.445,312.99,766.115z M330.058,764.64
		c3.859,2.77,7.679,5.65,11.662,8.237c9.097-4.034,62.578-58.589,73.095-68.914l289.293-289.261
		c11.118-11.07,64.115-58.808,70.101-68.451c-2.774-4.584-5.454-9.384-8.865-13.531L394.378,702.875
		C373.421,723.944,350.732,743.323,330.058,764.64z"/>
	<path style="fill:#5FCAF3;" d="M774.208,346.251c14.368,20.615,26.541,47.57,34.533,71.578
		c50.768,152.499-32.418,310.363-175.634,374.629c-91.986,41.278-187.097,38.315-275.192-9.102
		c-5.461-2.94-11.827-6.022-16.195-10.479c9.097-4.034,62.578-58.589,73.095-68.914l289.293-289.261
		C715.226,403.632,768.223,355.895,774.208,346.251z"/>
	<path style="fill:#3B3E57;" d="M256.273,708.805c-11.395-8.506-16.657-21.28-23.187-33.584
		c-41.362-77.935-56.065-147.301-36.541-235.306c25.824-116.396,122.484-218.256,240.389-242.392
		c103.206-21.128,185.564,1.368,272.647,57.509l0.774,0.489c-4.066,10.829-35.536,36.52-45.104,45.927L298.336,664.967
		C291.749,671.396,260.107,706.622,256.273,708.805z M246.728,673.148l2.902-0.725c-10.11-18.92-18.752-32.95-26.287-54.156
		c-26.195-73.736-17.729-162.841,15.896-233.26c14.174-29.688,33.99-53.403,57.124-76.602
		c75.013-75.221,159.744-105.854,265.421-93.365c35.08,4.147,62.074,12.949,93.658,29.027c5.907,3.006,11.462,6.725,17.456,9.552
		l0.527,0.245c3.403,0.51,7.218,1.134,10.638,0.726l-1.53-2.474c-81.832-46.893-164.283-64.169-258.153-38.654
		C229.432,266.456,136.727,501.724,246.728,673.148z"/>
	<path style="fill:#FFFFFF;" d="M249.63,672.424c2.547,4.569,6.653,10.777,7.623,15.927l-0.659-0.117
		c-3.091-5.166-6.458-10.126-9.866-15.085L249.63,672.424z"/>
	<path style="fill:#5FCAF3;" d="M249.63,672.424c-10.11-18.92-18.752-32.95-26.287-54.156
		c-26.195-73.736-17.729-162.841,15.896-233.26c14.174-29.688,33.99-53.403,57.124-76.602
		c75.013-75.221,159.744-105.854,265.421-93.365c35.08,4.147,62.074,12.949,93.658,29.027c5.907,3.006,11.462,6.725,17.456,9.552
		l0.527,0.245c3.403,0.51,7.218,1.134,10.638,0.726l-1.53-2.474c3.767,1.96,7.247,4.412,10.659,6.928l-2.961,2.848
		c-27.608,28.677-59.365,57.104-88.182,85.718L275.034,670.84c-5.818,5.839-12.317,11.371-17.781,17.511
		C256.283,683.201,252.178,676.993,249.63,672.424z"/>
	<path style="fill:#FFFFFF;" d="M682.534,252.118c3.767,1.96,7.247,4.412,10.659,6.928l-2.961,2.848
		c-6.323-0.734-11.536-4.701-16.806-8.029c3.403,0.51,7.218,1.134,10.638,0.726L682.534,252.118z"/>
</g>
</svg>
